<svg width="187" height="30" viewBox="0 0 187 30" fill="none" xmlns="http://www.w3.org/2000/svg">
<path d="M20.0774 0.637426C14.5318 0.634592 8.74576 1.86776 2.90587 3.46734C2.1643 3.61475 1.44069 4.09385 1.05806 4.68633C0.706305 5.2448 0.578524 5.8054 0.468689 6.39293C-0.0984299 9.53113 -0.0295141 12.6126 0.088217 16.0272C0.11406 16.809 0.231792 17.7353 0.601496 18.2987C0.987711 18.8678 1.64959 19.2292 2.43997 19.3476C3.44973 19.4938 4.46266 19.6179 5.478 19.7197L5.25403 25.8841C5.21957 26.3745 5.46221 26.782 5.76372 27.0166C6.03364 27.2193 6.33443 27.3093 6.64311 27.332C7.26048 27.3781 7.98481 27.1173 8.34447 26.4411C9.9202 23.4475 10.9087 22.1258 12.8793 20.1371C18.0178 20.2618 22.5038 19.9798 27.5827 19.6091C29.3781 19.563 30.6107 18.1137 30.9366 16.9564C31.9108 13.9571 32.0623 10.2547 32.1656 6.51199C32.2094 5.02864 31.6882 3.57223 30.7658 2.80256C29.8885 2.10022 28.8261 1.84579 27.8527 1.58498C25.1484 0.980446 22.4435 0.655853 20.0774 0.637426ZM27.4643 2.98328C28.4392 3.2448 29.2985 3.4964 29.8404 3.93084C30.745 4.87981 30.7148 5.51128 30.7019 6.53538C30.6 10.1654 30.4234 13.6885 29.5935 16.3582C29.236 17.354 28.6129 18.0627 27.4356 18.1697C22.2611 18.5474 17.7716 18.8394 12.5706 18.6934C12.4693 18.6902 12.3685 18.7076 12.2742 18.7444C12.18 18.7812 12.0945 18.8367 12.0228 18.9075C9.83764 21.0861 8.71992 22.5999 7.05445 25.765C7.01569 25.8373 6.9317 25.8813 6.82832 25.8891C6.75869 25.8855 6.73069 25.8324 6.72638 25.7842L6.9518 19.0995C6.96544 18.7388 6.66393 18.3944 6.30069 18.3554C5.08613 18.2409 3.87489 18.0943 2.66825 17.916C2.14708 17.8373 1.95469 17.6963 1.81183 17.4865C1.56344 16.9018 1.56919 16.5404 1.54981 15.9783C1.43351 12.5942 1.37608 9.63673 1.90228 6.69413C1.9511 6.25898 2.11621 5.8139 2.29137 5.44183C2.58139 4.99392 3.02575 4.92801 3.47155 4.80611C9.18294 3.24905 14.7709 2.08463 20.0314 2.08109C22.61 2.17322 25.3178 2.42836 27.4643 2.98328V2.98328ZM7.73787 8.71681C6.95108 9.64736 7.02933 10.911 7.63736 11.7572C7.95466 12.2002 8.45 12.5566 9.05301 12.6374C9.83621 12.7012 10.333 12.388 10.8692 12.0279C11.8405 11.1945 11.9389 9.7402 11.2002 8.68988C10.824 8.1548 10.2224 7.83375 9.60792 7.81107C8.76658 7.81958 8.19515 8.19024 7.73787 8.7161V8.71681ZM16.249 7.95707C15.465 7.98187 14.8312 8.51766 14.4442 9.09598C14.0013 9.75721 13.7429 10.585 14.1011 11.3965C14.7902 12.9578 17.1714 12.9386 18.1212 11.3518C18.5591 10.6204 18.4471 9.7891 18.1212 9.18599C17.7967 8.58357 17.3057 8.09243 16.5914 7.97975C16.4782 7.96138 16.3636 7.95378 16.249 7.95707V7.95707ZM23.1585 8.10377C22.9144 8.0981 22.6632 8.12078 22.4277 8.18244C21.4858 8.43049 20.684 9.3901 20.8053 10.6183C20.867 11.2363 21.1549 11.8387 21.6739 12.254C22.1929 12.6686 22.9467 12.8543 23.7414 12.6934C24.6545 12.5092 25.2202 11.7827 25.409 11.0811C25.5978 10.3795 25.5504 9.66437 25.1118 9.08464C24.8836 8.78503 24.589 8.5409 24.2506 8.3709C23.9122 8.2009 23.5389 8.10953 23.1592 8.10377H23.1585ZM9.54403 9.25402C9.71991 9.25544 9.85846 9.31072 10.0013 9.51341C10.3208 9.96841 10.2318 10.658 9.90943 10.9344C9.58854 11.2108 9.38826 11.2349 9.24755 11.2165C9.10685 11.1973 8.96399 11.1017 8.83621 10.9231C8.59213 10.5829 8.52035 10.0329 8.84124 9.64027C9.01209 9.41632 9.3258 9.2767 9.54475 9.25402H9.54403ZM16.3516 9.41207C16.3789 9.41632 16.6847 9.59137 16.8312 9.86281C16.9776 10.1343 17.0049 10.3866 16.8656 10.6183C16.4514 11.31 15.5706 11.1229 15.437 10.8217C15.3868 10.7069 15.4248 10.2455 15.6668 9.8862C15.9073 9.52546 16.2102 9.3901 16.3516 9.41136V9.41207ZM23.9352 9.94219C23.9797 10.001 24.0881 10.3958 24.0041 10.709C23.9194 11.0223 23.7816 11.2158 23.4442 11.2838C23.012 11.3717 22.7694 11.2838 22.5878 11.1371C22.4054 10.9918 22.2827 10.7459 22.2561 10.4829C22.1915 9.83092 22.4284 9.67996 22.8046 9.58074C23.2425 9.47443 23.7378 9.66012 23.9352 9.94219V9.94219Z" fill="white"/>
<path d="M41.3574 3.55522C41.3689 3.37095 41.4371 3.20511 41.5635 3.05841C41.6249 2.98649 41.7022 2.92933 41.7894 2.89126C41.8766 2.8532 41.9714 2.83522 42.0667 2.8387H46.9669C47.132 2.8387 47.3021 2.90674 47.478 3.04211C47.5604 3.10052 47.6274 3.17761 47.6734 3.2669C47.7194 3.35619 47.743 3.45506 47.7422 3.55522V11.2753H55.941V3.55522C55.941 3.35961 56.0099 3.19165 56.147 3.05061C56.2849 2.90887 56.4629 2.838 56.6833 2.838H61.5174C61.7371 2.838 61.9295 2.89257 62.0946 3.001C62.2597 3.11014 62.3423 3.28378 62.3423 3.52262V26.3079C62.3423 26.5467 62.2705 26.7261 62.1269 26.8451C61.9848 26.9649 61.7974 27.0244 61.567 27.0244H56.6833C56.4636 27.0244 56.2849 26.9649 56.147 26.8451C56.0099 26.7261 55.941 26.5475 55.941 26.3079V17.057H47.7422V26.3079C47.7422 26.5361 47.6675 26.7119 47.5196 26.8373C47.371 26.9621 47.17 27.0244 46.9166 27.0244H42.0667C41.6051 27.0244 41.3689 26.8125 41.3574 26.3894V3.55522ZM86.4937 26.748C86.3508 26.8671 86.1993 26.9429 86.04 26.9755C85.8911 27.0072 85.7393 27.0238 85.587 27.0251H83.096C82.8978 27.0251 82.727 26.9897 82.5841 26.9188C82.4406 26.848 82.3199 26.753 82.2209 26.6339C82.1195 26.5102 82.0364 26.373 81.9739 26.2264C81.9075 26.0732 81.8523 25.9155 81.8088 25.7544L81.2977 23.6694C81.1326 24.006 80.8935 24.3887 80.5798 24.8175C80.2404 25.2725 79.8378 25.6781 79.3838 26.0223C78.9 26.3979 78.3221 26.7126 77.6516 26.9677C76.9804 27.2229 76.2108 27.3504 75.3415 27.3504C74.0881 27.3504 72.9496 27.1116 71.9266 26.6339C70.9251 26.1719 70.034 25.5058 69.3121 24.6793C68.5921 23.8543 68.0336 22.8905 67.638 21.7877C67.2418 20.6864 67.0436 19.5106 67.0436 18.2625V7.5942C67.0436 7.18173 67.1348 6.86989 67.3164 6.65799C67.4973 6.44608 67.7859 6.34048 68.1822 6.34048H71.9926C72.4664 6.34048 72.7902 6.41844 72.9661 6.57648C73.1419 6.73382 73.2302 7.0407 73.2302 7.4964V18.0988C73.2302 18.5666 73.3379 19.0088 73.5519 19.427C73.7665 19.8451 74.0493 20.2136 74.4018 20.534C74.7536 20.8543 75.152 21.1073 75.5978 21.2916C76.0429 21.4759 76.4966 21.568 76.9589 21.568C77.3544 21.568 77.7643 21.4759 78.1879 21.2916C78.6142 21.105 79.0091 20.855 79.3587 20.5503C79.7162 20.2413 80.0106 19.877 80.2417 19.4589C80.4729 19.0407 80.5877 18.5985 80.5877 18.1321V7.5453C80.5877 7.36104 80.6236 7.17677 80.6954 6.99179C80.7672 6.80753 80.8742 6.66578 81.017 6.56798C81.1599 6.48152 81.2948 6.42198 81.4212 6.38938C81.5475 6.35678 81.694 6.33977 81.8584 6.33977H85.587C86.0593 6.33977 86.4003 6.45459 86.6092 6.68208C86.8181 6.91029 86.9229 7.21433 86.9229 7.5942V25.8196C86.9229 26.0251 86.8763 26.2158 86.783 26.3894C86.6896 26.563 86.5604 26.6991 86.3953 26.7962L86.4937 26.748V26.748ZM105.647 24.5C105.35 24.7934 105.023 25.1081 104.666 25.4447C104.308 25.7813 103.915 26.0967 103.486 26.3894C103.055 26.684 102.59 26.9273 102.101 27.1144C101.59 27.3073 101.047 27.404 100.5 27.3993C99.0047 27.3993 97.6271 27.1229 96.3673 26.5687C95.1392 26.0367 94.0335 25.2637 93.1175 24.2966C92.2101 23.3355 91.5008 22.2037 90.9897 20.9004C90.4779 19.5978 90.2223 18.1973 90.2223 16.6984C90.2223 15.1888 90.4779 13.7856 90.9897 12.4886C91.5008 11.1917 92.2101 10.062 93.1175 9.10094C94.0324 8.13478 95.1385 7.36432 96.3673 6.83729C97.6271 6.28875 99.0047 6.01447 100.5 6.01447C101.105 6.01447 101.658 6.10164 102.158 6.27528C102.641 6.44042 103.101 6.66471 103.527 6.94289C103.94 7.21433 104.319 7.52121 104.666 7.86281C105.012 8.20512 105.339 8.53893 105.647 8.86494V1.42127C105.647 1.074 105.755 0.781296 105.969 0.542458C106.183 0.302911 106.505 0.183846 106.934 0.183846H110.646C110.789 0.183846 110.94 0.213613 111.099 0.273145C111.259 0.333386 111.405 0.417015 111.537 0.526157C111.669 0.634591 111.776 0.764995 111.858 0.916661C111.941 1.06904 111.982 1.237 111.982 1.42127V25.7707C111.982 26.607 111.537 27.0251 110.646 27.0251H107.412C107.193 27.0251 107.022 26.9968 106.901 26.9429C106.782 26.8898 106.677 26.8089 106.596 26.7069C106.504 26.5874 106.429 26.456 106.373 26.3164C106.295 26.1325 106.213 25.9506 106.126 25.7707L105.647 24.5V24.5ZM96.1612 16.6984C96.1557 17.3833 96.2701 18.064 96.4994 18.7104C96.7248 19.3341 97.0464 19.8749 97.4649 20.3306C97.8874 20.7899 98.401 21.1585 98.9739 21.4135C99.5625 21.68 100.214 21.8125 100.929 21.8125C101.633 21.8125 102.295 21.6878 102.917 21.4383C103.521 21.1995 104.072 20.8482 104.542 20.4036C105.008 19.9583 105.386 19.4309 105.656 18.8487C105.936 18.2512 106.093 17.6105 106.126 16.9266V16.6984C106.129 16.0168 105.994 15.3416 105.73 14.7119C105.474 14.0945 105.102 13.5308 104.633 13.0506C104.163 12.5711 103.602 12.1866 102.983 11.9188C102.336 11.6389 101.636 11.4973 100.929 11.5035C100.214 11.5035 99.5625 11.6417 98.9739 11.9188C98.3852 12.1952 97.8827 12.5729 97.4649 13.0506C97.0402 13.5396 96.7127 14.1032 96.4994 14.7119C96.2727 15.3501 96.1586 16.0221 96.162 16.6984H96.1612ZM131.136 24.5C130.839 24.7934 130.511 25.1081 130.154 25.4447C129.796 25.7813 129.403 26.0967 128.974 26.3894C128.543 26.684 128.078 26.9273 127.589 27.1144C127.078 27.3073 126.535 27.404 125.988 27.3993C124.493 27.3993 123.115 27.1229 121.856 26.5687C120.628 26.0368 119.522 25.2637 118.606 24.2966C117.699 23.3355 116.989 22.2037 116.478 20.9004C115.967 19.5978 115.71 18.1973 115.71 16.6984C115.71 15.1888 115.967 13.7856 116.478 12.4886C116.989 11.1917 117.698 10.062 118.606 9.10094C119.521 8.1347 120.627 7.36424 121.856 6.83729C123.115 6.28875 124.493 6.01447 125.988 6.01447C126.593 6.01447 127.146 6.10164 127.646 6.27528C128.129 6.44042 128.589 6.66471 129.015 6.94289C129.428 7.21433 129.807 7.52121 130.154 7.86281C130.501 8.20512 130.827 8.53893 131.135 8.86494V1.42127C131.135 1.074 131.243 0.781296 131.457 0.542458C131.672 0.302911 131.993 0.183846 132.422 0.183846H136.134C136.277 0.183846 136.428 0.213613 136.588 0.273145C136.748 0.333386 136.893 0.417015 137.025 0.526157C137.157 0.634591 137.264 0.764995 137.347 0.916661C137.429 1.06904 137.471 1.237 137.471 1.42127V25.7707C137.471 26.607 137.025 27.0251 136.134 27.0251H132.901C132.681 27.0251 132.51 26.9968 132.389 26.9429C132.27 26.8897 132.165 26.8088 132.084 26.7069C131.992 26.5874 131.918 26.456 131.862 26.3164C131.784 26.1325 131.701 25.9506 131.614 25.7707L131.135 24.5H131.136ZM121.649 16.6984C121.644 17.3833 121.758 18.064 121.987 18.7104C122.214 19.3341 122.535 19.8749 122.953 20.3306C123.376 20.79 123.89 21.1586 124.463 21.4135C125.051 21.68 125.702 21.8125 126.417 21.8125C127.121 21.8125 127.784 21.6878 128.405 21.4383C129.009 21.1996 129.561 20.8483 130.03 20.4036C130.496 19.9582 130.874 19.4308 131.143 18.8487C131.424 18.2512 131.581 17.6105 131.614 16.9266V16.6984C131.617 16.0168 131.482 15.3416 131.218 14.7119C130.962 14.0945 130.59 13.5308 130.121 13.0506C129.651 12.5711 129.09 12.1866 128.471 11.9188C127.824 11.6389 127.124 11.4973 126.417 11.5035C125.702 11.5035 125.051 11.6417 124.463 11.9188C123.874 12.1952 123.371 12.5729 122.953 13.0506C122.528 13.5396 122.201 14.1032 121.987 14.7119C121.761 15.3501 121.647 16.0221 121.65 16.6984H121.649ZM141.86 1.43757C141.86 1.0903 141.947 0.797597 142.123 0.558758C142.3 0.319212 142.602 0.200147 143.03 0.200147H147.072C147.183 0.200147 147.298 0.229913 147.419 0.289446C147.546 0.353646 147.66 0.439278 147.757 0.542458C147.862 0.650892 147.949 0.781296 148.021 0.932962C148.093 1.08534 148.129 1.2533 148.129 1.43757V25.7707C148.129 26.1832 148.01 26.495 147.773 26.7069C147.537 26.9188 147.232 27.0244 146.858 27.0244H143.03C142.602 27.0244 142.3 26.9181 142.123 26.7069C141.947 26.495 141.86 26.1825 141.86 25.7707V1.43757ZM169.641 24.5489C168.685 25.4212 167.579 26.1188 166.375 26.6091C165.156 27.1051 163.849 27.357 162.531 27.3504C161.023 27.3504 159.6 27.079 158.258 26.5354C156.947 26.0122 155.748 25.2468 154.727 24.2803C153.71 23.312 152.893 22.1588 152.319 20.8841C151.725 19.5815 151.428 18.1647 151.428 16.6332C151.428 15.6778 151.546 14.7523 151.783 13.8564C152.012 12.9799 152.35 12.1348 152.789 11.3405C153.224 10.5586 153.756 9.83363 154.373 9.18244C154.988 8.53016 155.69 7.96301 156.46 7.4964C157.242 7.02379 158.086 6.65673 158.967 6.40498C159.895 6.141 160.856 6.0095 161.821 6.01447C162.734 6.01447 163.619 6.13424 164.477 6.37308C165.335 6.61192 166.141 6.94856 166.894 7.3823C167.648 7.81674 168.337 8.33836 168.964 8.94644C169.583 9.54439 170.126 10.2143 170.581 10.9415C171.032 11.6634 171.384 12.441 171.629 13.254C171.876 14.074 172 14.9181 172 15.7863C172 16.3511 171.992 16.8125 171.975 17.1711C171.959 17.529 171.873 17.8146 171.719 18.0258C171.565 18.2384 171.31 18.3844 170.952 18.4652C170.595 18.5474 170.069 18.5878 169.377 18.5878H157.499C157.609 19.2824 157.832 19.8635 158.167 20.3313C158.477 20.774 158.872 21.1527 159.33 21.4461C159.77 21.7232 160.237 21.9209 160.732 22.0414C161.191 22.1561 161.662 22.216 162.134 22.22C162.531 22.22 162.937 22.1789 163.355 22.0981C163.767 22.0183 164.172 21.9094 164.568 21.7721C164.938 21.6451 165.297 21.4869 165.64 21.2994C165.964 21.1208 166.226 20.933 166.424 20.7381C166.6 20.5963 166.751 20.4907 166.877 20.4199C167.004 20.349 167.139 20.3143 167.282 20.3143C167.425 20.3143 167.57 20.3639 167.719 20.461C167.9 20.5858 168.069 20.7275 168.222 20.8841L169.971 22.8387C170.091 22.9805 170.169 23.108 170.202 23.2214C170.235 23.3355 170.251 23.4525 170.251 23.5715C170.251 23.7891 170.19 23.9762 170.07 24.1336C169.948 24.2918 169.803 24.4317 169.641 24.5489H169.641ZM161.706 10.9819C161.277 10.9819 160.862 11.0662 160.46 11.2342C160.053 11.4058 159.672 11.6335 159.33 11.9103C158.978 12.1924 158.662 12.5127 158.381 12.8713C158.114 13.2094 157.884 13.5754 157.697 13.9627H166.127C165.905 13.5544 165.655 13.1624 165.376 12.7898C165.112 12.4363 164.801 12.1187 164.452 11.8451C164.096 11.5683 163.694 11.3535 163.264 11.2101C162.819 11.0577 162.3 10.9819 161.706 10.9819Z" fill="white"/>
</svg>
